<svg xmlns="http://www.w3.org/2000/svg" viewBox="0 0 602.71 426.95"><defs><style>.cls-1{fill:#83a1e6;}.cls-2{fill:#dff2fd;}.cls-3{fill:#1d3c80;}.cls-4{fill:#d6dae6;}.cls-5{fill:#ff6f61;}.cls-6{fill:#ffc3ad;}.cls-7{fill:#f0a68c;}.cls-8{fill:#1e1f35;}.cls-9{fill:#fff;}.cls-10{fill:#122a61;}.cls-11{fill:#d8ecf2;}.cls-12{fill:#d8e4e8;}.cls-13{fill:#abbade;}.cls-14{fill:#6e93e6;}.cls-15{fill:none;stroke:#83a1e6;stroke-miterlimit:10;stroke-width:5.42px;}.cls-16{fill:#dfe7f4;}</style></defs><g id="Layer_2" data-name="Layer 2"><g id="illustration"><path class="cls-1" d="M235.48,95h-7.11a3,3,0,0,1-3-3V83a22,22,0,0,1-4.29-1.77l-6.35,6.35a3,3,0,0,1-4.2,0l-5-5a3,3,0,0,1,0-4.2L211.88,72a23,23,0,0,1-1.78-4.29h-9a3,3,0,0,1-3-3V57.63a3,3,0,0,1,3-3h9a23,23,0,0,1,1.78-4.29L205.53,44a3,3,0,0,1,0-4.21l5-5a3,3,0,0,1,4.2,0l6.35,6.34a22.66,22.66,0,0,1,4.29-1.77v-9a3,3,0,0,1,3-3h7.11a3,3,0,0,1,3,3v9a22.84,22.84,0,0,1,4.28,1.77l6.35-6.34a3,3,0,0,1,4.21,0l5,5a3,3,0,0,1,0,4.21L252,50.37a22.93,22.93,0,0,1,1.77,4.29h9a3,3,0,0,1,3,3v7.11a3,3,0,0,1-3,3h-9A22.93,22.93,0,0,1,252,72l6.34,6.35a3,3,0,0,1,0,4.2l-5,5a3,3,0,0,1-4.21,0l-6.35-6.35A22.19,22.19,0,0,1,238.45,83v9A3,3,0,0,1,235.48,95Zm-14.6-15.39.45.25a21.21,21.21,0,0,0,4.92,2l.49.14V92a1.63,1.63,0,0,0,1.63,1.63h7.11A1.63,1.63,0,0,0,237.11,92V82l.49-.14a21.39,21.39,0,0,0,4.92-2l.44-.25L250,86.63a1.65,1.65,0,0,0,2.31,0l5-5a1.62,1.62,0,0,0,0-2.3l-7.07-7.07.26-.45a21.39,21.39,0,0,0,2-4.92l.13-.49h10a1.63,1.63,0,0,0,1.63-1.63V57.63A1.63,1.63,0,0,0,262.72,56h-10l-.13-.49a21.39,21.39,0,0,0-2-4.92l-.26-.45,7.07-7.06a1.63,1.63,0,0,0,0-2.31l-5-5a1.63,1.63,0,0,0-2.31,0L243,42.81l-.44-.25a21.39,21.39,0,0,0-4.92-2l-.49-.13v-10a1.63,1.63,0,0,0-1.63-1.63h-7.11a1.63,1.63,0,0,0-1.63,1.63v10l-.49.13a21.21,21.21,0,0,0-4.92,2l-.45.25-7.07-7.06a1.62,1.62,0,0,0-2.3,0l-5,5a1.65,1.65,0,0,0,0,2.31l7.07,7.06-.25.45a21.39,21.39,0,0,0-2,4.92l-.14.49h-10a1.63,1.63,0,0,0-1.63,1.63v7.11a1.63,1.63,0,0,0,1.63,1.63h10l.14.49a21.39,21.39,0,0,0,2,4.92l.25.45-7.07,7.07a1.64,1.64,0,0,0,0,2.3l5,5a1.64,1.64,0,0,0,2.3,0Zm11-5.9a12.48,12.48,0,1,1,12.47-12.47A12.49,12.49,0,0,1,231.92,73.66Zm0-23.6a11.13,11.13,0,1,0,11.13,11.13A11.14,11.14,0,0,0,231.92,50.06Z"/><g id="fon"><path class="cls-2" d="M35.54,158.92C108.33,120,184.67,113.84,248.45,99.79,332.47,81.28,361.17,30.36,459,35c93.89,4.49,104.19,96.12,120,174,13.85,68.15,11.45,158.59-29.65,193.79-36.56,31.31-178.42,18-258.77,14.82-77.72-3.07-185.45,14.06-216-3.63-45.38-26.29-67.37-99.37-70.42-141C.69,225.69.83,177.47,35.54,158.92Z"/></g><path class="cls-3" d="M379.49,235.11c-4.32-10.06-12.09-17.84-14.09-29.52-3.53-20.54,17.37-40.09,16.47-66.06a45.92,45.92,0,0,0-14.1-31.66c8.11,5.6,12.66,12.2,16.48,22.33,6.31,16.75-2.28,34.83-2.37,35a.67.67,0,0,0,.31.89.59.59,0,0,0,.29.07.68.68,0,0,0,.61-.38c.09-.18,8.93-18.76,2.41-36.07-5.12-13.61-11.52-21-25.66-28A51.09,51.09,0,0,0,330,94.45c-13.71.77-20.57,7.35-23.91,12.73-.45.72-.83,1.42-1.17,2.09a21,21,0,0,0-1.81,5l8.57,174.36s28.84,10.2,38.13,7.4c12.11-1.4,32.05-22.78,32.69-45.34a49.39,49.39,0,0,1-1.81,23.24,1,1,0,1,0,1.91.64,51.39,51.39,0,0,0-.13-32.37A52.37,52.37,0,0,0,379.49,235.11Z"/><polygon class="cls-4" points="326.03 245.87 279.32 245.87 278.65 261.96 325.38 261.96 326.03 245.87"/><path class="cls-5" d="M412.37,386l-.09-.21-42.94-107a20.35,20.35,0,0,0-10.51-11,187.35,187.35,0,0,0-18.9-7.4L329.36,256l-.73,1.16c-8.2-2-16.73-3.4-24.46-3.25-5.17.1,4.12,9,14.25,18.46-4.76,5.85-10.15,10.17-14.71,16.56-5.24-6.73-9.09-13.11-13.36-19.25,8.86-6.54,16.1-12.29,11.69-13.77-3.11-1-11.36,0-21.06,2-.82-.87-1.66-1.73-2.56-2.6L244,267.89a20.31,20.31,0,0,0-12.48,13.21L199.7,386.63l-.1.29a15.5,15.5,0,0,0-.77,4.75,15.66,15.66,0,0,0,15.67,15.5l58,5.71c8.43,0,15.5-12.37,15.67-20.81a15.37,15.37,0,0,0-1.65-7.25l42.3-.95a15.44,15.44,0,0,0-2.17,8c.09,8.49,34.78,21,43.27,21,0,0,32.06-6.07,33.94-6.83A15.42,15.42,0,0,0,412.37,386Zm-174.83-9.63h-1.18l1.09-2.95ZM369.92,366l4.54,10.32h-4.15Z"/><path class="cls-5" d="M341.43,119.25c-1.24,4-6.56,5.82-11.86,4.15s-8.61-6.23-7.37-10.18,4.75-5.93,11.87-4.16C343,111.28,342.67,115.29,341.43,119.25Z"/><path class="cls-6" d="M319.45,251.84a69,69,0,0,1-1.73-12.5,32.69,32.69,0,0,1-15.76,5,26,26,0,0,1-12.65-2.94,45.44,45.44,0,0,1-1.44,10.41h0l-9.45,3.45c10.91,10.53,15.87,21.5,25.29,33.6,5.7-8,12.72-12.75,18.15-21.32,2.56-3.94,5.12-7.75,7.5-11.61Z"/><path class="cls-6" d="M307.56,137.7c27.28-.68,34.34,7.56,36.73,23.12.79,5.12,1.07,11,1.41,17.69,0,.32,0,.65,0,1q.12-3.3,0-6.75c-.34-6.66-.62-12.57-1.41-17.69-2.39-15.56-9.45-23.8-36.73-23.12-34.85.86-51.43,6.25-50.29,38C258.33,143.28,274.94,138.5,307.56,137.7Z"/><path class="cls-7" d="M317.8,233.5A32.55,32.55,0,0,1,302,238.59a26.07,26.07,0,0,1-12.86-3.05,46.66,46.66,0,0,1,.21,5.89A26,26,0,0,0,302,244.37a32.69,32.69,0,0,0,15.76-5A50.88,50.88,0,0,1,317.8,233.5Z"/><path class="cls-6" d="M345.7,178.51c-.34-6.65-.62-12.57-1.41-17.69-2.39-15.56-9.45-23.8-36.73-23.12-32.62.8-49.23,5.58-50.29,32.25,0,1.3.12,2.64.22,4a134.64,134.64,0,0,0,2.36,16.87h0c2.82,13.76,7.53,25.47,12.7,31.38a60,60,0,0,0,14,11.94c.82.48,1.66.94,2.51,1.36A26.07,26.07,0,0,0,302,238.59a32.55,32.55,0,0,0,15.84-5.09c.89-.55,1.76-1.13,2.6-1.74a64.1,64.1,0,0,0,7.25-6.18c5.87-5.7,17.21-22.7,18.09-46.1C345.72,179.16,345.71,178.83,345.7,178.51Z"/><path class="cls-7" d="M357.08,153.42c-1.1,10.66-6.73,26.8-13,39.45H344c-1.86-21.07-8.39-23-12.49-27.38-5.37-5.68-7.06-17.91-7.06-17.91s-6.57,9.17-16.64,12.31c-9.55,3-24.12.22-37.16,5.6-8.67,3.58-10.23,27.37-10.23,27.37l-1.91-43.94,68.31-23.73Z"/><ellipse class="cls-6" cx="342.86" cy="200.93" rx="8.56" ry="5.63" transform="translate(37.62 455.39) rotate(-70.19)"/><ellipse class="cls-6" cx="261.95" cy="200.93" rx="5.63" ry="8.56" transform="translate(-52.6 100.68) rotate(-19.81)"/><ellipse class="cls-8" cx="278.42" cy="188.49" rx="3.83" ry="5.56"/><ellipse class="cls-8" cx="326.21" cy="188.49" rx="3.83" ry="5.56"/><path class="cls-3" d="M357.1,147.25c-1.19-8.51-6-31.87-27.87-31.62a7.78,7.78,0,0,0-1.66.34h0s-.37-.3-1-.72c-3.09-2-13.15-7.68-27.87-5.49-18.14,2.68-42.16,11-43.3,47.23-.78,24.94,5,35.88,5,35.88s-3.12-22.11,8.07-28.71c8.19-4.83,19.7-4.48,34-6.72,11.22-1.75,19-10.47,21.93-15h0c.45-.69.79-1.26,1-1.64.06.38.15.92.28,1.59,1,5.37,4.42,16.75,11.3,23.1,8.73,8.06,8.44,17.58,7,27.37,6.3-12.65,11.93-28.79,13-39.45A26.49,26.49,0,0,0,357.1,147.25Z"/><path class="cls-9" d="M295.19,212.58l.05,0,.11,0,.21.13a3.09,3.09,0,0,1,.29.17l.37.22.42.24c.16.07.32.16.48.25s.35.16.53.24.37.16.57.23.39.15.6.2.4.13.62.18l.32.06a1.23,1.23,0,0,0,.32.07l.34,0a1.75,1.75,0,0,0,.33.06c.24,0,.46,0,.7.06l.72,0,.76,0h.17c.16,0-.2,0-.16,0h0l.27,0,.53-.05h.2l.12,0,.23,0,.64-.13c.2-.05.41-.1.61-.17a2.63,2.63,0,0,0,.3-.09l.3-.11c.2-.06.38-.17.58-.25.38-.18.76-.37,1.11-.58.18-.1.35-.21.51-.32s.32-.22.47-.32l.78-.57c.22-.18.42-.31.54-.41l.19-.15.23-.15a2.14,2.14,0,0,1,3,.57,2.07,2.07,0,0,1,.36,1.41s0,.11,0,.31-.09.5-.19.86a10.84,10.84,0,0,1-.47,1.32,10.41,10.41,0,0,1-.9,1.62,8.27,8.27,0,0,1-.65.88c-.24.3-.52.58-.81.88a10.94,10.94,0,0,1-2.12,1.58,11.6,11.6,0,0,1-2.65,1.12l-.81.17-.41.08-.19,0h-.14l-.53.06-.27,0h0l-.18,0h-.31c-.47,0-.93,0-1.4,0s-.94-.11-1.4-.18-.92-.22-1.37-.33a11.74,11.74,0,0,1-1.29-.48,11.2,11.2,0,0,1-2.26-1.29c-.34-.25-.64-.51-.93-.76s-.53-.53-.77-.79-.43-.53-.62-.79-.35-.51-.49-.75-.27-.47-.37-.69-.2-.42-.27-.61a8.48,8.48,0,0,1-.3-.91c-.05-.13-.07-.24-.09-.3v-.07a2.16,2.16,0,0,1,1.92-2.37,2.19,2.19,0,0,1,1.61.49Z"/><path class="cls-3" d="M284.11,175.69l-.11-.05-.38-.14c-.34-.12-.84-.29-1.45-.45a18.07,18.07,0,0,0-4.59-.62c-.42,0-.83,0-1.23.06a10.24,10.24,0,0,0-1.17.18,7.81,7.81,0,0,0-1.06.27c-.17,0-.32.11-.48.16l-.43.18c-.28.11-.52.25-.74.36l-.55.32-.45.31-.09.06a1.34,1.34,0,0,1-1.62-2.13l.56-.46.67-.5c.27-.17.58-.37.93-.56.17-.09.35-.19.55-.28s.39-.19.6-.27a12.39,12.39,0,0,1,1.34-.48,13.52,13.52,0,0,1,1.46-.35c.5-.1,1-.17,1.52-.22a21.89,21.89,0,0,1,5.57.23c.75.13,1.37.27,1.81.38l.52.15.2.06a2,2,0,0,1-1.19,3.85l-.18-.06Z"/><path class="cls-3" d="M320.25,175.69l.12-.05.38-.14c.33-.12.84-.29,1.45-.45a18.07,18.07,0,0,1,4.59-.62c.41,0,.83,0,1.23.06a10.24,10.24,0,0,1,1.17.18,7.81,7.81,0,0,1,1.06.27c.17,0,.32.11.48.16l.43.18c.28.11.52.25.74.36l.54.32.46.31.09.06a1.34,1.34,0,0,0,1.62-2.13l-.56-.46-.67-.5c-.28-.17-.58-.37-.93-.56l-.55-.28c-.19-.09-.39-.19-.6-.27a12.39,12.39,0,0,0-1.34-.48,13.52,13.52,0,0,0-1.46-.35c-.5-.1-1-.17-1.52-.22a21.89,21.89,0,0,0-5.57.23c-.75.13-1.37.27-1.81.38l-.52.15-.2.06a2,2,0,0,0,1.19,3.85l.18-.06Z"/><path class="cls-10" d="M329.23,115.63l-3.51,26.77c-.13-.67-.22-1.21-.28-1.59-.23.38-.57.95-1,1.64l2.14-27.2c.63.42,1,.69,1,.72h0C328.14,115.83,328.69,115.72,329.23,115.63Z"/><path class="cls-7" d="M299.67,205.15a5.36,5.36,0,0,1-3.26-.89,3.43,3.43,0,0,1-1.31-2.92,8.56,8.56,0,0,1,1.81-4.47l.4-.63a18.77,18.77,0,0,0,1.27-3.56.77.77,0,0,1,.93-.54.76.76,0,0,1,.54.93,19.81,19.81,0,0,1-1.45,4l-.42.66a7.23,7.23,0,0,0-1.56,3.65,2,2,0,0,0,.71,1.7c1.32,1,4.22.46,5.23.17a.76.76,0,0,1,.94.51.75.75,0,0,1-.52.94A12.52,12.52,0,0,1,299.67,205.15Z"/><polygon class="cls-11" points="392.79 407.38 216.61 407.38 216.71 402.37 392.79 402.37 392.79 407.38"/><path class="cls-12" d="M244.48,290.83H364.93a27.87,27.87,0,0,1,27.87,27.87v83.67a0,0,0,0,1,0,0H216.61a0,0,0,0,1,0,0V318.7A27.87,27.87,0,0,1,244.48,290.83Z"/><circle class="cls-13" cx="306.99" cy="324.75" r="12.79"/><path class="cls-4" d="M303.71,288.89l3.41-18.17a3.19,3.19,0,0,1,1-1.81l4.23-3.86,6.26-4.61,8.22,4.59Z"/><path class="cls-9" d="M312.36,265.05a105.91,105.91,0,0,1,20.43,23.84c.78-4.66,2.41-31.48,2.41-31.48L326,245.86Z"/><path class="cls-4" d="M303.62,288.89l-3.42-18.17a3.23,3.23,0,0,0-1-1.81L295,265.05l-9.57-9.57-9.85,3.39Z"/><path class="cls-9" d="M295,265.05s-14.7,12.63-20.43,23.84c-.95-9.8-2.41-31.48-2.41-31.48l7.2-11.55Z"/><rect class="cls-14" x="89.33" y="407.38" width="405.11" height="19.56" rx="9.78"/><path class="cls-13" d="M315.59,233.76a75.55,75.55,0,0,1-8-.45,1.72,1.72,0,1,1,.37-3.41c11.61,1.25,20.59-.19,26.69-4.29,4.69-3.14,7.69-7.75,9.17-14.1a1.71,1.71,0,1,1,3.34.78c-1.67,7.13-5.24,12.57-10.6,16.17S324.27,233.76,315.59,233.76Z"/><path class="cls-13" d="M355.06,172.21a64.41,64.41,0,0,0-1.19-10.69,60.33,60.33,0,0,0-3.21-10.68c-.17-.44-.38-.88-.56-1.33l-.29-.66-.29-.64-.58-1.19-.28-.6-.07-.13,0-.08-.08-.16-.17-.31a49.94,49.94,0,0,0-2.9-4.84,47.39,47.39,0,0,0-7.16-8.34,48.5,48.5,0,0,0-4.06-3.36l-1.05-.75-1.06-.71c-.34-.24-.7-.45-1.06-.67s-.7-.44-1.06-.64l-1.06-.6c-.36-.2-.72-.37-1.07-.56-.7-.38-1.42-.69-2.12-1-1.41-.63-2.79-1.18-4.14-1.64a49.73,49.73,0,0,0-7.51-2,55.79,55.79,0,0,0-5.89-.75c-.41,0-.79-.07-1.17-.08l-1.05,0-.9,0h-3.92l-.9,0-1.05,0c-.38,0-.76,0-1.17.08a56.27,56.27,0,0,0-5.9.75,49.93,49.93,0,0,0-7.5,2c-1.35.46-2.73,1-4.14,1.64-.7.34-1.42.65-2.12,1-.35.19-.71.36-1.07.56l-1.06.6c-.36.2-.71.43-1.06.64s-.72.43-1.07.67l-1.05.71-1,.75a50.29,50.29,0,0,0-4.07,3.36,47.76,47.76,0,0,0-7.15,8.34,49.94,49.94,0,0,0-2.9,4.84l-.17.31-.08.16,0,.08-.07.13-.29.6-.57,1.19-.29.64-.29.66c-.18.45-.39.89-.56,1.33a60.33,60.33,0,0,0-3.21,10.68,64.41,64.41,0,0,0-1.19,10.69,73,73,0,0,0,.43,10c.35,3.13.87,6.06,1.43,8.73s1.21,5.08,1.82,7.19,1.19,3.94,1.68,5.43.91,2.66,1.19,3.45l.43,1.2,4.57-1.51-.36-1.21c-.23-.79-.56-1.94-1-3.41s-.89-3.25-1.38-5.3-1-4.38-1.43-6.92-.81-5.3-1-8.21a69.33,69.33,0,0,1-.11-9.15,58.18,58.18,0,0,1,1.32-9.58,56.18,56.18,0,0,1,3.06-9.44c.16-.38.34-.74.5-1.11l.25-.54c.09-.19.16-.36.27-.57l.6-1.18.3-.59.26-.48a42.65,42.65,0,0,1,8.78-11.21,41.06,41.06,0,0,1,3.48-2.83,40.07,40.07,0,0,1,3.6-2.34l.91-.52.91-.47c.6-.32,1.21-.59,1.81-.88,1.2-.53,2.38-1,3.54-1.42a47.62,47.62,0,0,1,6.47-1.75,49.22,49.22,0,0,1,5.17-.74c.35,0,.7-.07,1-.08l.88-.06.76,0,.69,0,1.15,0,1.15,0,.69,0,.76,0,.88.06c.32,0,.66,0,1,.08a49.22,49.22,0,0,1,5.17.74,47.62,47.62,0,0,1,6.47,1.75c1.16.4,2.34.89,3.54,1.42.6.29,1.21.56,1.81.88l.91.47.91.52a40.07,40.07,0,0,1,3.6,2.34,41.06,41.06,0,0,1,3.48,2.83A42.65,42.65,0,0,1,342.25,149l.26.48.3.59.6,1.18c.11.21.18.38.27.57l.25.54c.16.37.34.73.5,1.11a56.18,56.18,0,0,1,3.06,9.44,58.18,58.18,0,0,1,1.32,9.58,69.33,69.33,0,0,1-.11,9.15c-.23,2.91-.6,5.67-1,8.21s-.94,4.86-1.43,6.92-1,3.83-1.38,5.3-.75,2.62-1,3.41l-.36,1.21,4.57,1.51.43-1.2c.28-.79.7-1.95,1.19-3.45s1.07-3.31,1.68-5.43,1.25-4.52,1.82-7.19,1.08-5.6,1.43-8.73A74.68,74.68,0,0,0,355.06,172.21Z"/><path class="cls-13" d="M351.46,186.49c1.32,3.67.11,10.64-2.32,18.28-2.59,8.17-5.87,14.92-9.31,16.68,6.81,1.59,12-3.1,15.55-14.42C358.89,196,357.54,189.25,351.46,186.49Z"/><path class="cls-1" d="M350,205c-2.59,8.17-5.87,14.92-9.31,16.68-.9.46-1.71.1-2.63-.19a3.33,3.33,0,0,1-2.57-2.32c-1.18-3.73,0-10.55,2.41-18,2.2-6.94,4.89-12.85,7.76-15.55,1.39-1.32,2.42-1.15,3.87-.7,1.14.36,2.32.52,2.78,1.81C353.68,190.39,352.46,197.37,350,205Z"/><path class="cls-13" d="M254.63,186.49c-1.32,3.67-.11,10.64,2.32,18.28,2.59,8.17,5.87,14.92,9.31,16.68-6.81,1.59-12-3.1-15.55-14.42C247.21,196,248.55,189.25,254.63,186.49Z"/><path class="cls-1" d="M256.05,205c2.59,8.17,5.87,14.92,9.31,16.68a3.24,3.24,0,0,0,2.63-.19,3.33,3.33,0,0,0,2.57-2.32c1.18-3.73,0-10.55-2.41-18-2.2-6.94-4.89-12.85-7.76-15.55-1.39-1.32-2.42-1.15-3.86-.7-1.15.36-2.33.52-2.79,1.81C252.41,190.39,253.63,197.37,256.05,205Z"/><rect class="cls-1" x="298.95" y="228.92" width="14.7" height="5.92" rx="2.96"/><path class="cls-1" d="M444.66,346.36h-.49a2.43,2.43,0,0,1-2.15-1.42,2.39,2.39,0,0,1,.33-2.55A24.66,24.66,0,0,0,448,325.45h-8.71a17.21,17.21,0,0,1-17.19-17.19V263.84a17.21,17.21,0,0,1,17.19-17.19H549.55a17.21,17.21,0,0,1,17.19,17.19v44.42a17.21,17.21,0,0,1-17.19,17.19h-78.7C467.42,332.11,458.46,346.36,444.66,346.36Zm-5.33-98.2a15.69,15.69,0,0,0-15.68,15.68v44.42a15.69,15.69,0,0,0,15.68,15.68h10l.1.64a25.36,25.36,0,0,1-6,18.77.91.91,0,0,0,.69,1.49h.45c13.25,0,21.91-14.3,25-20.5l.21-.41h79.63a15.69,15.69,0,0,0,15.67-15.68V263.84a15.69,15.69,0,0,0-15.67-15.68Z"/><path class="cls-1" d="M404.37,78.29a37.11,37.11,0,0,1-1.25-74.2.89.89,0,0,1,.9.85.88.88,0,0,1-.85.9,35.37,35.37,0,1,0,36.57,35.34.87.87,0,0,1,1.74,0A37.14,37.14,0,0,1,404.37,78.29Z"/><path class="cls-1" d="M396,.25a.52.52,0,0,0,.18.7l6.7,4-6.49,4.37a.52.52,0,0,0-.14.71.51.51,0,0,0,.71.14l7.16-4.82a.49.49,0,0,0,.22-.43.5.5,0,0,0-.24-.43L396.74.07a.58.58,0,0,0-.28-.07A.51.51,0,0,0,396,.25Z"/><path class="cls-1" d="M379.33,46.06a4.83,4.83,0,0,1-.07-.86c0-6,7.31-8.08,7.31-11.55A2.35,2.35,0,0,0,384,31.4a4.69,4.69,0,0,0-3.27,1.41l-1.16-1.41a6.62,6.62,0,0,1,4.66-1.86c2.74,0,4.55,1.74,4.55,4,0,4.47-6.66,6.54-7.17,10.64h7.15v1.91Z"/><path class="cls-1" d="M401.71,42.6v3.46h-2.08V42.6h-6.94V40.93l4.85-11.27,1.81.76L395,40.7h4.67V36.08h2.08V40.7h1.93v1.9Z"/><path class="cls-1" d="M406.21,47.12l6.54-19,1.72.58-6.54,19Z"/><path class="cls-1" d="M420.09,46.06c0-7.1,1.92-10.77,5.45-14.34h-7.82v-1.9H428v1.67c-4.25,4.13-5.59,7.37-5.59,14.57Z"/><circle class="cls-15" cx="44.79" cy="346.36" r="42.08"/><path class="cls-1" d="M63.69,347.51H44.79a1.14,1.14,0,0,1-1.14-1.15V319.78a1.15,1.15,0,1,1,2.29,0v25.44H63.69a1.15,1.15,0,0,1,0,2.29Z"/><path class="cls-16" d="M221.22,56H128.66a13.8,13.8,0,0,0-13.8,13.8v37.31a13.8,13.8,0,0,0,13.8,13.8h66.48c2.86,5.66,10.38,17.84,22,17.55a1.4,1.4,0,0,0,1.05-2.29,20.87,20.87,0,0,1-4.86-15.26h7.89a13.8,13.8,0,0,0,13.8-13.8V69.83A13.8,13.8,0,0,0,221.22,56Z"/><circle class="cls-1" cx="154.7" cy="86.45" r="6.79" transform="translate(-15.88 38.4) rotate(-13.47)"/><circle class="cls-3" cx="173.87" cy="86.45" r="6.79"/><circle class="cls-1" cx="193.04" cy="86.45" r="6.79" transform="translate(52.63 244.64) rotate(-72.53)"/><path class="cls-16" d="M531.71,169.35H593.5a9.22,9.22,0,0,1,9.21,9.21v24.91a9.21,9.21,0,0,1-9.21,9.21H549.12c-1.91,3.78-6.93,11.91-14.69,11.72a.94.94,0,0,1-.7-1.53A14,14,0,0,0,537,212.68h-5.27a9.21,9.21,0,0,1-9.21-9.21V178.56A9.21,9.21,0,0,1,531.71,169.35Z"/><circle class="cls-3" cx="576.11" cy="189.66" r="4.53" transform="translate(259.16 706.78) rotate(-76.72)"/><circle class="cls-1" cx="563.31" cy="189.66" r="4.53" transform="translate(249.3 694.33) rotate(-76.72)"/><circle class="cls-1" cx="550.52" cy="189.66" r="4.53" transform="translate(239.45 681.88) rotate(-76.72)"/><path class="cls-1" d="M173.66,286.45c-6.95,0-13.56-3.11-19.65-9.25a61.48,61.48,0,0,1-10.55-14.93H52.41a19.77,19.77,0,0,1-19.76-19.75V191.15A19.77,19.77,0,0,1,52.41,171.4H179.83a19.78,19.78,0,0,1,19.76,19.75v51.37a19.78,19.78,0,0,1-19.76,19.75H169.65a28.66,28.66,0,0,0,6.6,19.77,2.7,2.7,0,0,1-2,4.4ZM52.41,172.91a18.26,18.26,0,0,0-18.24,18.24v51.37a18.26,18.26,0,0,0,18.24,18.24h91.52a.75.75,0,0,1,.67.41c3.68,7.27,13.9,24.15,29.59,23.75a1.17,1.17,0,0,0,.88-1.92c-8.48-10.36-6.92-21.15-6.85-21.6a.75.75,0,0,1,.75-.64h10.86a18.26,18.26,0,0,0,18.24-18.24V191.15a18.26,18.26,0,0,0-18.24-18.24Z"/><path class="cls-1" d="M181.73,187.79H49.79a1.3,1.3,0,1,1,0-2.6H181.73a1.3,1.3,0,1,1,0,2.6Z"/><path class="cls-1" d="M137.19,202.22H50.44a1.3,1.3,0,1,1,0-2.59h86.75a1.3,1.3,0,1,1,0,2.59Z"/><path class="cls-1" d="M181.73,202.22H153.2a1.3,1.3,0,1,1,0-2.59h28.53a1.3,1.3,0,1,1,0,2.59Z"/><path class="cls-1" d="M82.89,213.9H49.79a1.3,1.3,0,0,1,0-2.6h33.1a1.3,1.3,0,0,1,0,2.6Z"/><path class="cls-1" d="M181.73,213.9H96.09a1.3,1.3,0,1,1,0-2.6h85.64a1.3,1.3,0,1,1,0,2.6Z"/><path class="cls-1" d="M115.76,225.58h-66a1.3,1.3,0,1,1,0-2.6h66a1.3,1.3,0,0,1,0,2.6Z"/><path class="cls-3" d="M486.06,141.37h-.4a2,2,0,0,1-1.47-3.21,20.09,20.09,0,0,0,4.61-13.73h-7.06a13.94,13.94,0,0,1-13.93-13.92v-36a14,14,0,0,1,13.93-13.93h35A14,14,0,0,1,530.63,74.5v36a13.94,13.94,0,0,1-13.93,13.92h-9.42C504.5,129.81,497.24,141.37,486.06,141.37ZM481.74,61.8A12.72,12.72,0,0,0,469,74.5v36a12.72,12.72,0,0,0,12.7,12.7h8.14l.08.52a20.57,20.57,0,0,1-4.82,15.2.72.72,0,0,0-.1.79.73.73,0,0,0,.65.43c10.95.26,18.1-11.52,20.66-16.61l.17-.33H516.7a12.71,12.71,0,0,0,12.7-12.7v-36a12.71,12.71,0,0,0-12.7-12.7Z"/><path class="cls-1" d="M503,110.42h-4.63a1.62,1.62,0,0,1-1.63-1.62V91a1.62,1.62,0,0,0-1.62-1.63h0a1.61,1.61,0,0,1-1.62-1.62v-2a1.62,1.62,0,0,1,1.62-1.62H503a1.63,1.63,0,0,1,1.63,1.62V108.8A1.62,1.62,0,0,1,503,110.42Zm-2.7-29.82a4.36,4.36,0,0,1-3.48-1.34,5,5,0,0,1-1.16-3.4,5.2,5.2,0,0,1,1.16-3.45,4.26,4.26,0,0,1,3.48-1.4,4.34,4.34,0,0,1,3.5,1.4A5.11,5.11,0,0,1,505,75.86a5,5,0,0,1-1.19,3.4A4.44,4.44,0,0,1,500.28,80.6Z"/><path class="cls-3" d="M135.22,290.19h-5.94a14.55,14.55,0,0,0-1.17-2.83l4.2-4.2a2,2,0,0,0,0-2.78L129,277.06a2,2,0,0,0-2.78,0l-4.19,4.2a15.05,15.05,0,0,0-2.84-1.18v-5.93a2,2,0,0,0-2-2h-4.7a2,2,0,0,0-2,2v5.93a15.24,15.24,0,0,0-2.83,1.18l-4.2-4.2a2,2,0,0,0-2.78,0l-3.32,3.32a2,2,0,0,0,0,2.78l4.2,4.2a14.59,14.59,0,0,0-1.18,2.83H94.5a2,2,0,0,0-2,2v4.7a2,2,0,0,0,2,2h5.93a14.59,14.59,0,0,0,1.18,2.83l-4.2,4.19a2,2,0,0,0,0,2.78l3.32,3.33a2,2,0,0,0,2.78,0l4.2-4.2a15.24,15.24,0,0,0,2.83,1.18v5.93a2,2,0,0,0,2,2h4.7a2,2,0,0,0,2-2v-5.93a15.05,15.05,0,0,0,2.84-1.18l4.19,4.2a2,2,0,0,0,2.78,0l3.33-3.33a2,2,0,0,0,0-2.78l-4.2-4.19a14.55,14.55,0,0,0,1.17-2.83h5.94a2,2,0,0,0,2-2v-4.7A2,2,0,0,0,135.22,290.19Zm-13,4.32a7.36,7.36,0,1,1-7.36-7.36A7.37,7.37,0,0,1,122.22,294.51Z"/><path class="cls-1" d="M458.48,159.63h-5.93a15.24,15.24,0,0,0-1.18-2.83l4.2-4.2a2,2,0,0,0,0-2.78l-3.32-3.32a2,2,0,0,0-2.78,0l-4.2,4.19a15.2,15.2,0,0,0-2.83-1.17v-5.93a2,2,0,0,0-2-2h-4.7a2,2,0,0,0-2,2v5.93a15.2,15.2,0,0,0-2.83,1.17l-4.19-4.19a2,2,0,0,0-2.78,0l-3.33,3.32a2,2,0,0,0,0,2.78l4.2,4.2a15.24,15.24,0,0,0-1.18,2.83h-5.93a2,2,0,0,0-2,2v4.7a2,2,0,0,0,2,2h5.93a15.24,15.24,0,0,0,1.18,2.83l-4.2,4.2a2,2,0,0,0,0,2.78l3.33,3.32a2,2,0,0,0,2.78,0L431,177.2a14.55,14.55,0,0,0,2.83,1.17v5.94a2,2,0,0,0,2,2h4.7a2,2,0,0,0,2-2v-5.94a14.55,14.55,0,0,0,2.83-1.17l4.2,4.19a2,2,0,0,0,2.78,0l3.32-3.32a2,2,0,0,0,0-2.78l-4.2-4.2a15.24,15.24,0,0,0,1.18-2.83h5.93a2,2,0,0,0,2-2v-4.7A2,2,0,0,0,458.48,159.63Zm-13,4.32a7.36,7.36,0,1,1-7.36-7.36A7.36,7.36,0,0,1,445.48,164Z"/></g></g></svg>